<svg width="16" height="16" viewBox="0 0 16 16" fill="none" xmlns="http://www.w3.org/2000/svg">
<g opacity="0.7">
<path d="M14.129 7.2032L14.1524 7.2728C14.1584 7.2907 14.1631 7.30903 14.1663 7.32761V7.32768V7.32774V7.32781V7.32787V7.32793V7.32799V7.32805V7.32812V7.32818V7.32824V7.3283V7.32836V7.32841V7.32847V7.32853V7.32859V7.32865V7.3287V7.32876V7.32881V7.32887V7.32892V7.32898V7.32903V7.32908V7.32914V7.32919V7.32924V7.32929V7.32935V7.3294V7.32945V7.3295V7.32955V7.3296V7.32964V7.32969V7.32974V7.32979V7.32984V7.32988V7.32993V7.32997V7.33002V7.33006V7.33011V7.33015V7.3302V7.33024V7.33028V7.33033V7.33037V7.33041V7.33045V7.33049V7.33053V7.33057V7.33061V7.33065V7.33069V7.33073V7.33077V7.33081V7.33085V7.33088V7.33092V7.33096V7.33099V7.33103V7.33107V7.3311V7.33114V7.33117V7.3312V7.33124V7.33127V7.33131V7.33134V7.33137V7.3314V7.33143V7.33147V7.3315V7.33153V7.33156V7.33159V7.33162V7.33165V7.33168V7.33171V7.33173V7.33176V7.33179V7.33182V7.33184V7.33187V7.3319V7.33192V7.33195V7.33198V7.332V7.33203V7.33205V7.33208V7.3321V7.33212V7.33215V7.33217V7.33219V7.33222V7.33224V7.33226V7.33228V7.3323V7.33233V7.33235V7.33237V7.33239V7.33241V7.33243V7.33245V7.33247V7.33249V7.33251V7.33252V7.33254V7.33256V7.33258V7.3326V7.33261V7.33263V7.33265V7.33266V7.33268V7.3327V7.33271V7.33273V7.33274V7.33276V7.33277V7.33279V7.3328V7.33282V7.33283V7.33285V7.33286V7.33287V7.33289V7.3329V7.33291V7.33292V7.33294V7.33295V7.33296V7.33297V7.33298V7.333V7.33301V7.33302V7.33303V7.33304V7.33305V7.33306V7.33307V7.33308V7.33309V7.3331V7.33311V7.33312V7.33313V7.33313V7.33314V7.33315V7.33316V7.33317V7.33317V7.33318V7.33319V7.3332V7.3332V7.33321V7.33322V7.33324V7.33325V7.33326V7.33327V7.33328V7.33329V7.3333V7.33331V7.33332V7.33333V7.33334V7.33334V7.33335V7.33336V7.33337V7.33338V7.33339V7.33339V7.3334V7.33341V11.3334C14.1663 11.7312 14.0083 12.1128 13.727 12.3941C13.4457 12.6754 13.0642 12.8334 12.6663 12.8334H3.33301C2.93518 12.8334 2.55365 12.6754 2.27235 12.3941C1.99104 12.1128 1.83301 11.7312 1.83301 11.3334V4.66675C1.83301 4.26892 1.99104 3.88739 2.27235 3.60609C2.55365 3.32478 2.93518 3.16675 3.33301 3.16675H9.97824C9.98935 3.17067 10.0001 3.17543 10.0106 3.181L10.121 3.24008H10.1659L14.129 7.2032ZM11.0199 4.58653L10.1663 3.73297V4.94008V6.00008C10.1663 6.3095 10.2893 6.60625 10.508 6.82504C10.7268 7.04383 11.0236 7.16675 11.333 7.16675H12.393H13.6001L12.7466 6.31319L11.0199 4.58653ZM9.83301 4.00008V3.50008H9.33301H3.33301C3.02359 3.50008 2.72684 3.623 2.50805 3.84179C2.28926 4.06058 2.16634 4.35733 2.16634 4.66675V11.3334C2.16634 11.6428 2.28926 11.9396 2.50805 12.1584C2.72684 12.3772 3.02359 12.5001 3.33301 12.5001H12.6663C12.9758 12.5001 13.2725 12.3772 13.4913 12.1584C13.7101 11.9396 13.833 11.6428 13.833 11.3334V8.00008V7.50008H13.333H11.333C10.9352 7.50008 10.5537 7.34205 10.2723 7.06074C9.99104 6.77944 9.83301 6.39791 9.83301 6.00008V4.00008ZM7.33301 7.50008H4.66634C4.62214 7.50008 4.57975 7.48252 4.54849 7.45127C4.51723 7.42001 4.49967 7.37762 4.49967 7.33341C4.49967 7.28921 4.51723 7.24682 4.54849 7.21556C4.57975 7.18431 4.62214 7.16675 4.66634 7.16675H7.33301C7.37721 7.16675 7.4196 7.18431 7.45086 7.21556C7.48212 7.24682 7.49967 7.28921 7.49967 7.33341C7.49967 7.37762 7.48212 7.42001 7.45086 7.45126C7.4196 7.48252 7.37721 7.50008 7.33301 7.50008ZM4.54849 9.88223C4.57975 9.85097 4.62214 9.83341 4.66634 9.83341H11.333C11.3772 9.83341 11.4196 9.85097 11.4509 9.88223C11.4821 9.91349 11.4997 9.95588 11.4997 10.0001C11.4997 10.0443 11.4821 10.0867 11.4509 10.1179L11.8044 10.4715L11.4509 10.1179C11.4196 10.1492 11.3772 10.1667 11.333 10.1667H4.66634C4.62214 10.1667 4.57975 10.1492 4.54849 10.1179C4.51723 10.0867 4.49967 10.0443 4.49967 10.0001C4.49967 9.95588 4.51723 9.91349 4.54849 9.88223Z" fill="black" stroke="#484038"/>
</g>
</svg>
