<svg width="50" height="60" viewBox="0 0 50 60" fill="none" xmlns="http://www.w3.org/2000/svg">
<rect width="50" height="60" rx="4" fill="white"/>
<rect x="0.5" y="0.5" width="49" height="59" rx="3.5" stroke="#484038" stroke-opacity="0.1"/>
<g opacity="0.3">
<path d="M29.6663 23.3334H20.333C19.8026 23.3334 19.2939 23.5441 18.9188 23.9192C18.5437 24.2942 18.333 24.8029 18.333 25.3334V34.6667C18.333 35.1971 18.5437 35.7058 18.9188 36.0809C19.2939 36.456 19.8026 36.6667 20.333 36.6667H29.6663C29.776 36.6652 29.8853 36.654 29.993 36.6334L30.193 36.5867H30.2397H30.273L30.5197 36.4934L30.6063 36.4467C30.673 36.4067 30.7463 36.3734 30.813 36.3267C30.902 36.2612 30.9867 36.1899 31.0663 36.1134L31.113 36.0534C31.1785 35.987 31.2386 35.9157 31.293 35.84L31.353 35.7534C31.3996 35.6792 31.4397 35.6011 31.473 35.52C31.4913 35.4881 31.5069 35.4546 31.5197 35.42C31.553 35.34 31.573 35.2534 31.5997 35.1667V35.0667C31.6375 34.9364 31.6598 34.8022 31.6663 34.6667V25.3334C31.6663 24.8029 31.4556 24.2942 31.0806 23.9192C30.7055 23.5441 30.1968 23.3334 29.6663 23.3334ZM20.333 35.3334C20.1562 35.3334 19.9866 35.2631 19.8616 35.1381C19.7366 35.0131 19.6663 34.8435 19.6663 34.6667V31.7934L21.8597 29.5934C21.9216 29.5309 21.9954 29.4813 22.0766 29.4474C22.1579 29.4136 22.245 29.3962 22.333 29.3962C22.421 29.3962 22.5082 29.4136 22.5894 29.4474C22.6706 29.4813 22.7444 29.5309 22.8063 29.5934L28.5397 35.3334H20.333ZM30.333 34.6667C30.3324 34.7489 30.3166 34.8303 30.2863 34.9067C30.2711 34.9392 30.2533 34.9704 30.233 35C30.2152 35.0283 30.1951 35.055 30.173 35.08L26.6063 31.5134L27.193 30.9267C27.255 30.8642 27.3287 30.8146 27.41 30.7808C27.4912 30.7469 27.5783 30.7295 27.6663 30.7295C27.7543 30.7295 27.8415 30.7469 27.9227 30.7808C28.004 30.8146 28.0777 30.8642 28.1397 30.9267L30.333 33.1267V34.6667ZM30.333 31.24L29.0797 30C28.6982 29.638 28.1923 29.4362 27.6663 29.4362C27.1404 29.4362 26.6345 29.638 26.253 30L25.6663 30.5867L23.7463 28.6667C23.3648 28.3047 22.8589 28.1029 22.333 28.1029C21.8071 28.1029 21.3012 28.3047 20.9197 28.6667L19.6663 29.9067V25.3334C19.6663 25.1566 19.7366 24.987 19.8616 24.862C19.9866 24.7369 20.1562 24.6667 20.333 24.6667H29.6663C29.8432 24.6667 30.0127 24.7369 30.1377 24.862C30.2628 24.987 30.333 25.1566 30.333 25.3334V31.24Z" fill="#6D6660"/>
</g>
</svg>
